<?xml version="1.0" encoding="utf-8"?>
<svg xmlns="http://www.w3.org/2000/svg" xmlns:xlink="http://www.w3.org/1999/xlink" style="margin: auto; background: rgb(255, 255, 255); display: block; z-index: 1; position: relative; shape-rendering: auto;" width="1072" height="140" preserveAspectRatio="xMidYMid" viewBox="0 0 1072 140">
<g transform="translate(536,70) scale(1,1) translate(-536,-70)"><defs>
<linearGradient id="lg-0.9316722866199456" x1="0" x2="0" y1="0" y2="1">
  <stop stop-color="#2fd846" offset="0.02"></stop>
  <stop stop-color="#31842c" offset="0.51"></stop>
  <stop stop-color="#31842c" offset="1"></stop>
</linearGradient>
<linearGradient id="fg-lg-0.9316722866199456" x1="0" x2="0" y1="0" y2="1">
  <stop stop-color="#2fd846" stop-opacity="1" offset="0.02"></stop>
  <stop stop-color="#31842c" stop-opacity="0.66" offset="0.51"></stop>
  <stop stop-color="#31842c" stop-opacity="0" offset="1"></stop>
</linearGradient>
<style type="text/css">
  path { fill: none; stroke: #ffffff; stroke-width: 1px }
</style>
</defs>
<rect x="0" y="0" width="1072" height="140" fill="url(#lg-0.9316722866199456)"></rect><path d="M0 2.8000000000000003 L-4663.2 140"></path><path d="M7.1466666666666665 2.8000000000000003 L-4593.877333333333 140"></path><path d="M14.293333333333333 2.8000000000000003 L-4524.554666666667 140"></path><path d="M21.44 2.8000000000000003 L-4455.232 140"></path><path d="M28.586666666666666 2.8000000000000003 L-4385.909333333333 140"></path><path d="M35.733333333333334 2.8000000000000003 L-4316.586666666666 140"></path><path d="M42.88 2.8000000000000003 L-4247.264 140"></path><path d="M50.026666666666664 2.8000000000000003 L-4177.941333333333 140"></path><path d="M57.17333333333333 2.8000000000000003 L-4108.618666666666 140"></path><path d="M64.32 2.8000000000000003 L-4039.296 140"></path><path d="M71.46666666666667 2.8000000000000003 L-3969.9733333333334 140"></path><path d="M78.61333333333333 2.8000000000000003 L-3900.6506666666664 140"></path><path d="M85.76 2.8000000000000003 L-3831.328 140"></path><path d="M92.90666666666667 2.8000000000000003 L-3762.0053333333335 140"></path><path d="M100.05333333333333 2.8000000000000003 L-3692.6826666666666 140"></path><path d="M107.2 2.8000000000000003 L-3623.3599999999997 140"></path><path d="M114.34666666666666 2.8000000000000003 L-3554.037333333333 140"></path><path d="M121.49333333333334 2.8000000000000003 L-3484.7146666666667 140"></path><path d="M128.64 2.8000000000000003 L-3415.392 140"></path><path d="M135.78666666666666 2.8000000000000003 L-3346.069333333333 140"></path><path d="M142.93333333333334 2.8000000000000003 L-3276.7466666666664 140"></path><path d="M150.08 2.8000000000000003 L-3207.424 140"></path><path d="M157.22666666666666 2.8000000000000003 L-3138.101333333333 140"></path><path d="M164.37333333333333 2.8000000000000003 L-3068.7786666666666 140"></path><path d="M171.52 2.8000000000000003 L-2999.456 140"></path><path d="M178.66666666666666 2.8000000000000003 L-2930.133333333333 140"></path><path d="M185.81333333333333 2.8000000000000003 L-2860.8106666666667 140"></path><path d="M192.96 2.8000000000000003 L-2791.488 140"></path><path d="M200.10666666666665 2.8000000000000003 L-2722.1653333333334 140"></path><path d="M207.25333333333333 2.8000000000000003 L-2652.8426666666664 140"></path><path d="M214.4 2.8000000000000003 L-2583.52 140"></path><path d="M221.54666666666665 2.8000000000000003 L-2514.1973333333335 140"></path><path d="M228.69333333333333 2.8000000000000003 L-2444.8746666666666 140"></path><path d="M235.84 2.8000000000000003 L-2375.5519999999997 140"></path><path d="M242.98666666666668 2.8000000000000003 L-2306.229333333333 140"></path><path d="M250.13333333333333 2.8000000000000003 L-2236.9066666666663 140"></path><path d="M257.28 2.8000000000000003 L-2167.584 140"></path><path d="M264.4266666666667 2.8000000000000003 L-2098.2613333333334 140"></path><path d="M271.5733333333333 2.8000000000000003 L-2028.9386666666664 140"></path><path d="M278.72 2.8000000000000003 L-1959.616 140"></path><path d="M285.8666666666667 2.8000000000000003 L-1890.293333333333 140"></path><path d="M293.0133333333333 2.8000000000000003 L-1820.9706666666666 140"></path><path d="M300.16 2.8000000000000003 L-1751.6479999999997 140"></path><path d="M307.3066666666667 2.8000000000000003 L-1682.3253333333332 140"></path><path d="M314.4533333333333 2.8000000000000003 L-1613.0026666666668 140"></path><path d="M321.6 2.8000000000000003 L-1543.6799999999998 140"></path><path d="M328.74666666666667 2.8000000000000003 L-1474.3573333333334 140"></path><path d="M335.8933333333333 2.8000000000000003 L-1405.0346666666665 140"></path><path d="M343.04 2.8000000000000003 L-1335.712 140"></path><path d="M350.18666666666667 2.8000000000000003 L-1266.3893333333335 140"></path><path d="M357.3333333333333 2.8000000000000003 L-1197.0666666666666 140"></path><path d="M364.48 2.8000000000000003 L-1127.7439999999997 140"></path><path d="M371.62666666666667 2.8000000000000003 L-1058.4213333333337 140"></path><path d="M378.7733333333333 2.8000000000000003 L-989.0986666666668 140"></path><path d="M385.92 2.8000000000000003 L-919.7759999999998 140"></path><path d="M393.06666666666666 2.8000000000000003 L-850.4533333333334 140"></path><path d="M400.2133333333333 2.8000000000000003 L-781.1306666666665 140"></path><path d="M407.36 2.8000000000000003 L-711.8080000000004 140"></path><path d="M414.50666666666666 2.8000000000000003 L-642.4853333333335 140"></path><path d="M421.6533333333333 2.8000000000000003 L-573.1626666666666 140"></path><path d="M428.8 2.8000000000000003 L-503.84000000000015 140"></path><path d="M435.94666666666666 2.8000000000000003 L-434.5173333333332 140"></path><path d="M443.0933333333333 2.8000000000000003 L-365.1946666666672 140"></path><path d="M450.24 2.8000000000000003 L-295.8720000000003 140"></path><path d="M457.38666666666666 2.8000000000000003 L-226.54933333333338 140"></path><path d="M464.53333333333336 2.8000000000000003 L-157.22666666666646 140"></path><path d="M471.68 2.8000000000000003 L-87.90399999999954 140"></path><path d="M478.82666666666665 2.8000000000000003 L-18.581333333333532 140"></path><path d="M485.97333333333336 2.8000000000000003 L50.74133333333339 140"></path><path d="M493.12 2.8000000000000003 L120.0640000000003 140"></path><path d="M500.26666666666665 2.8000000000000003 L189.38666666666722 140"></path><path d="M507.41333333333336 2.8000000000000003 L258.70933333333323 140"></path><path d="M514.56 2.8000000000000003 L328.03200000000015 140"></path><path d="M521.7066666666667 2.8000000000000003 L397.35466666666616 140"></path><path d="M528.8533333333334 2.8000000000000003 L466.6773333333331 140"></path><path d="M536 2.8000000000000003 L536 140"></path><path d="M543.1466666666666 2.8000000000000003 L605.3226666666669 140"></path><path d="M550.2933333333333 2.8000000000000003 L674.6453333333329 140"></path><path d="M557.44 2.8000000000000003 L743.9679999999998 140"></path><path d="M564.5866666666667 2.8000000000000003 L813.2906666666668 140"></path><path d="M571.7333333333333 2.8000000000000003 L882.6133333333337 140"></path><path d="M578.88 2.8000000000000003 L951.9360000000006 140"></path><path d="M586.0266666666666 2.8000000000000003 L1021.2586666666666 140"></path><path d="M593.1733333333333 2.8000000000000003 L1090.5813333333335 140"></path><path d="M600.32 2.8000000000000003 L1159.9040000000005 140"></path><path d="M607.4666666666667 2.8000000000000003 L1229.2266666666665 140"></path><path d="M614.6133333333333 2.8000000000000003 L1298.5493333333334 140"></path><path d="M621.76 2.8000000000000003 L1367.8719999999994 140"></path><path d="M628.9066666666666 2.8000000000000003 L1437.1946666666663 140"></path><path d="M636.0533333333333 2.8000000000000003 L1506.5173333333332 140"></path><path d="M643.2 2.8000000000000003 L1575.8400000000001 140"></path><path d="M650.3466666666667 2.8000000000000003 L1645.162666666667 140"></path><path d="M657.4933333333333 2.8000000000000003 L1714.485333333333 140"></path><path d="M664.64 2.8000000000000003 L1783.808 140"></path><path d="M671.7866666666666 2.8000000000000003 L1853.130666666667 140"></path><path d="M678.9333333333333 2.8000000000000003 L1922.4533333333338 140"></path><path d="M686.08 2.8000000000000003 L1991.7759999999998 140"></path><path d="M693.2266666666667 2.8000000000000003 L2061.0986666666668 140"></path><path d="M700.3733333333333 2.8000000000000003 L2130.4213333333328 140"></path><path d="M707.52 2.8000000000000003 L2199.7439999999997 140"></path><path d="M714.6666666666666 2.8000000000000003 L2269.0666666666666 140"></path><path d="M721.8133333333334 2.8000000000000003 L2338.3893333333326 140"></path><path d="M728.96 2.8000000000000003 L2407.7120000000004 140"></path><path d="M736.1066666666667 2.8000000000000003 L2477.0346666666665 140"></path><path d="M743.2533333333333 2.8000000000000003 L2546.3573333333325 140"></path><path d="M750.4 2.8000000000000003 L2615.6800000000003 140"></path><path d="M757.5466666666666 2.8000000000000003 L2685.0026666666663 140"></path><path d="M764.6933333333334 2.8000000000000003 L2754.325333333334 140"></path><path d="M771.84 2.8000000000000003 L2823.648 140"></path><path d="M778.9866666666667 2.8000000000000003 L2892.970666666666 140"></path><path d="M786.1333333333333 2.8000000000000003 L2962.293333333333 140"></path><path d="M793.28 2.8000000000000003 L3031.616 140"></path><path d="M800.4266666666666 2.8000000000000003 L3100.938666666667 140"></path><path d="M807.5733333333334 2.8000000000000003 L3170.261333333333 140"></path><path d="M814.72 2.8000000000000003 L3239.583999999999 140"></path><path d="M821.8666666666667 2.8000000000000003 L3308.9066666666668 140"></path><path d="M829.0133333333333 2.8000000000000003 L3378.2293333333328 140"></path><path d="M836.16 2.8000000000000003 L3447.5520000000006 140"></path><path d="M843.3066666666666 2.8000000000000003 L3516.8746666666666 140"></path><path d="M850.4533333333334 2.8000000000000003 L3586.1973333333326 140"></path><path d="M857.6 2.8000000000000003 L3655.5199999999995 140"></path><path d="M864.7466666666667 2.8000000000000003 L3724.8426666666664 140"></path><path d="M871.8933333333333 2.8000000000000003 L3794.1653333333334 140"></path><path d="M879.04 2.8000000000000003 L3863.4880000000003 140"></path><path d="M886.1866666666666 2.8000000000000003 L3932.8106666666654 140"></path><path d="M893.3333333333334 2.8000000000000003 L4002.133333333334 140"></path><path d="M900.48 2.8000000000000003 L4071.455999999999 140"></path><path d="M907.6266666666667 2.8000000000000003 L4140.778666666668 140"></path><path d="M914.7733333333333 2.8000000000000003 L4210.101333333333 140"></path><path d="M921.92 2.8000000000000003 L4279.424 140"></path><path d="M929.0666666666667 2.8000000000000003 L4348.746666666667 140"></path><path d="M936.2133333333334 2.8000000000000003 L4418.069333333332 140"></path><path d="M943.36 2.8000000000000003 L4487.392000000001 140"></path><path d="M950.5066666666667 2.8000000000000003 L4556.714666666666 140"></path><path d="M957.6533333333333 2.8000000000000003 L4626.037333333333 140"></path><path d="M964.8 2.8000000000000003 L4695.36 140"></path><path d="M971.9466666666667 2.8000000000000003 L4764.682666666667 140"></path><path d="M979.0933333333334 2.8000000000000003 L4834.0053333333335 140"></path><path d="M986.24 2.8000000000000003 L4903.328 140"></path><path d="M993.3866666666667 2.8000000000000003 L4972.6506666666655 140"></path><path d="M1000.5333333333333 2.8000000000000003 L5041.973333333334 140"></path><path d="M1007.68 2.8000000000000003 L5111.295999999999 140"></path><path d="M1014.8266666666667 2.8000000000000003 L5180.618666666666 140"></path><path d="M1021.9733333333334 2.8000000000000003 L5249.941333333333 140"></path><path d="M1029.12 2.8000000000000003 L5319.264 140"></path><path d="M1036.2666666666667 2.8000000000000003 L5388.586666666667 140"></path><path d="M1043.4133333333334 2.8000000000000003 L5457.909333333332 140"></path><path d="M1050.56 2.8000000000000003 L5527.232000000001 140"></path><path d="M1057.7066666666667 2.8000000000000003 L5596.554666666666 140"></path><path d="M1064.8533333333332 2.8000000000000003 L5665.877333333333 140"></path><path d="M1072 2.8000000000000003 L5735.2 140"></path><g>
<path d="M0 2.8000000000000003 L1072 2.8000000000000003"></path>
<animateTransform attributeName="transform" type="translate" repeatCount="indefinite" calcMode="linear" keyTimes="0;1" values="0 0;0 0.7805155555555555" begin="0s" dur="0.14367816091954022s"></animateTransform>

</g><g>
<path d="M0 3.580515555555556 L1072 3.580515555555556"></path>
<animateTransform attributeName="transform" type="translate" repeatCount="indefinite" calcMode="linear" keyTimes="0;1" values="0 0;0 1.5610311111111108" begin="0s" dur="0.14367816091954022s"></animateTransform>

</g><g>
<path d="M0 5.141546666666667 L1072 5.141546666666667"></path>
<animateTransform attributeName="transform" type="translate" repeatCount="indefinite" calcMode="linear" keyTimes="0;1" values="0 0;0 2.3415466666666664" begin="0s" dur="0.14367816091954022s"></animateTransform>

</g><g>
<path d="M0 7.483093333333333 L1072 7.483093333333333"></path>
<animateTransform attributeName="transform" type="translate" repeatCount="indefinite" calcMode="linear" keyTimes="0;1" values="0 0;0 3.122062222222222" begin="0s" dur="0.14367816091954022s"></animateTransform>

</g><g>
<path d="M0 10.605155555555555 L1072 10.605155555555555"></path>
<animateTransform attributeName="transform" type="translate" repeatCount="indefinite" calcMode="linear" keyTimes="0;1" values="0 0;0 3.9025777777777773" begin="0s" dur="0.14367816091954022s"></animateTransform>

</g><g>
<path d="M0 14.507733333333332 L1072 14.507733333333332"></path>
<animateTransform attributeName="transform" type="translate" repeatCount="indefinite" calcMode="linear" keyTimes="0;1" values="0 0;0 4.683093333333333" begin="0s" dur="0.14367816091954022s"></animateTransform>

</g><g>
<path d="M0 19.190826666666666 L1072 19.190826666666666"></path>
<animateTransform attributeName="transform" type="translate" repeatCount="indefinite" calcMode="linear" keyTimes="0;1" values="0 0;0 5.4636088888888885" begin="0s" dur="0.14367816091954022s"></animateTransform>

</g><g>
<path d="M0 24.654435555555555 L1072 24.654435555555555"></path>
<animateTransform attributeName="transform" type="translate" repeatCount="indefinite" calcMode="linear" keyTimes="0;1" values="0 0;0 6.244124444444444" begin="0s" dur="0.14367816091954022s"></animateTransform>

</g><g>
<path d="M0 30.89856 L1072 30.89856"></path>
<animateTransform attributeName="transform" type="translate" repeatCount="indefinite" calcMode="linear" keyTimes="0;1" values="0 0;0 7.02464" begin="0s" dur="0.14367816091954022s"></animateTransform>

</g><g>
<path d="M0 37.9232 L1072 37.9232"></path>
<animateTransform attributeName="transform" type="translate" repeatCount="indefinite" calcMode="linear" keyTimes="0;1" values="0 0;0 7.805155555555555" begin="0s" dur="0.14367816091954022s"></animateTransform>

</g><g>
<path d="M0 45.72835555555556 L1072 45.72835555555556"></path>
<animateTransform attributeName="transform" type="translate" repeatCount="indefinite" calcMode="linear" keyTimes="0;1" values="0 0;0 8.585671111111111" begin="0s" dur="0.14367816091954022s"></animateTransform>

</g><g>
<path d="M0 54.31402666666667 L1072 54.31402666666667"></path>
<animateTransform attributeName="transform" type="translate" repeatCount="indefinite" calcMode="linear" keyTimes="0;1" values="0 0;0 9.366186666666666" begin="0s" dur="0.14367816091954022s"></animateTransform>

</g><g>
<path d="M0 63.680213333333334 L1072 63.680213333333334"></path>
<animateTransform attributeName="transform" type="translate" repeatCount="indefinite" calcMode="linear" keyTimes="0;1" values="0 0;0 10.14670222222222" begin="0s" dur="0.14367816091954022s"></animateTransform>

</g><g>
<path d="M0 73.82691555555556 L1072 73.82691555555556"></path>
<animateTransform attributeName="transform" type="translate" repeatCount="indefinite" calcMode="linear" keyTimes="0;1" values="0 0;0 10.927217777777775" begin="0s" dur="0.14367816091954022s"></animateTransform>

</g><g>
<path d="M0 84.75413333333333 L1072 84.75413333333333"></path>
<animateTransform attributeName="transform" type="translate" repeatCount="indefinite" calcMode="linear" keyTimes="0;1" values="0 0;0 11.70773333333333" begin="0s" dur="0.14367816091954022s"></animateTransform>

</g><g>
<path d="M0 96.46186666666665 L1072 96.46186666666665"></path>
<animateTransform attributeName="transform" type="translate" repeatCount="indefinite" calcMode="linear" keyTimes="0;1" values="0 0;0 12.488248888888885" begin="0s" dur="0.14367816091954022s"></animateTransform>

</g><g>
<path d="M0 108.95011555555554 L1072 108.95011555555554"></path>
<animateTransform attributeName="transform" type="translate" repeatCount="indefinite" calcMode="linear" keyTimes="0;1" values="0 0;0 13.26876444444444" begin="0s" dur="0.14367816091954022s"></animateTransform>

</g><g>
<path d="M0 122.21887999999998 L1072 122.21887999999998"></path>
<animateTransform attributeName="transform" type="translate" repeatCount="indefinite" calcMode="linear" keyTimes="0;1" values="0 0;0 14.049279999999994" begin="0s" dur="0.14367816091954022s"></animateTransform>

</g><g>
<path d="M0 136.26815999999997 L1072 136.26815999999997"></path>
<animateTransform attributeName="transform" type="translate" repeatCount="indefinite" calcMode="linear" keyTimes="0;1" values="0 0;0 14.829795555555549" begin="0s" dur="0.14367816091954022s"></animateTransform>

</g><rect x="0" y="0" width="1072" height="140" fill="url(#fg-lg-0.9316722866199456)"></rect></g>
</svg>